<svg xmlns="http://www.w3.org/2000/svg" xmlns:xlink="http://www.w3.org/1999/xlink" fill="BlueViolet" class="bi bi-flower1" viewBox="0 0 16 16">
  <path d="
  
  M6.174 1.184
  a2 2 0 0 1 3.652 0
  A2 2 0 0 1 12.99 3.01
  a2 2 0 0 1 1.826 3.164 2 2 0 0 1 0 3.652 2 2 0 0 1-1.826 3.164 2 2 0 0 1-3.164 1.826 2 2 0 0 1-3.652 0
  A2 2 0 0 1 3.01 12.99
  a2 2 0 0 1-1.826-3.164 2 2 0 0 1 0-3.652
  A2 2 0 0 1 3.01 3.01
  a2 2 0 0 1 3.164-1.826z
  
  M8 1a1 1 0 0 0-.998 1.03l.01.091c.012.077.029.176.054.296.049.241.122.542.213.887.182.688.428 1.513.676 2.314L8 5.762l.045-.144c.248-.8.494-1.626.676-2.314.091-.345.164-.646.213-.887a4.997 4.997 0 0 0 .064-.386L9 2a1 1 0 0 0-1-1z
  M2 9l.03-.002.091-.01a4.99 4.99 0 0 0 .296-.054c.241-.049.542-.122.887-.213a60.59 60.59 0 0 0 2.314-.676L5.762 8l-.144-.045a60.59 60.59 0 0 0-2.314-.676 16.705 16.705 0 0 0-.887-.213 4.99 4.99 0 0 0-.386-.064L2 7a1 1 0 1 0 0 2z
  M4.5 14.062m9.196-8.196a1 1 0 0 0-1-1.732l-.025.017a4.951 4.951 0 0 0-.303.248 16.69 16.69 0 0 0-.661.629A60.72 60.72 0 0 0 10.04 6.77l-.102.111.147-.033a60.6 60.6 0 0 0 2.342-.572c.345-.093.642-.18.875-.258a4.993 4.993 0 0 0 .367-.138.53.53 0 0 0 .027-.014z
  M11.5 1.938a1 1 0 0 0-1.366.366l-.014.027c-.01.02-.021.048-.036.084a5.09 5.09 0 0 0-.102.283c-.078.233-.165.53-.258.875a60.62 60.62 0 0 0-.572 2.342l-.033.147.11-.102a60.848 60.848 0 0 0 1.743-1.667c.252-.253.465-.477.629-.66a5.001 5.001 0 0 0 .248-.304l.017-.025a1 1 0 0 0-.366-1.366z
  M14 9a1 1 0 0 0 0-2l-.03.002a4.996 4.996 0 0 0-.386.064c-.242.049-.543.122-.888.213-.688.182-1.513.428-2.314.676L10.238 8l.144.045c.8.248 1.626.494 2.314.676.345.091.646.164.887.213a4.996 4.996 0 0 0 .386.064L14 9z
  M1.938 4.5a1 1 0 0 0 .393 1.38l.084.035c.072.03.166.064.283.103.233.078.53.165.874.258a60.88 60.88 0 0 0 2.343.572l.147.033-.103-.111a60.584 60.584 0 0 0-1.666-1.742 16.705 16.705 0 0 0-.66-.629 4.996 4.996 0 0 0-.304-.248l-.025-.017a1 1 0 0 0-1.366.366z
  m2.196-1.196.017.025a4.996 4.996 0 0 0 .248.303c.164.184.377.408.629.661A60.597 60.597 0 0 0 6.77 5.96l.111.102-.033-.147a60.602 60.602 0 0 0-.572-2.342c-.093-.345-.18-.642-.258-.875a5.006 5.006 0 0 0-.138-.367l-.014-.027a1 1 0 1 0-1.732 1z
  "/>

	
  <circle cx="8" cy="8" r="1.5" fill="white">
	<animate attributeName="fill" to="BlueViolet" dur="0.5s" repeatCount="indefinite" />
	<animate attributeName="r" to="1" dur="0.5s" repeatCount="indefinite" />
  </circle>

  <text x="3" y="12.5" fill="white" font-size="3">BeiSoo</text>

</svg>